<?xml version="1.0" encoding="utf-8"?>
<svg id="red_and_white_logo" xmlns="http://www.w3.org/2000/svg" viewBox="-5.714 -0.6 32.024 34.922">
  <defs>
    <style>
      .cls-1 {
        fill: #f05656;
      }

      .cls-2 {
        fill: #fff;
      }
    </style>
  </defs>
  <g transform="matrix(1, 0, 0, 1, -7.110745, -1.872738)">
    <path class="cls-1" d="M 30.311 7.99 L 20.31 2.228 C 18.57 1.141 16.288 1.141 14.548 2.228 L 4.547 7.99 C 2.807 9.077 1.611 10.925 1.611 12.99 L 1.611 24.514 C 1.611 26.579 2.699 28.536 4.547 29.514 L 14.548 35.276 C 16.288 36.363 18.57 36.363 20.31 35.276 L 30.311 29.514 C 32.051 28.427 33.247 26.579 33.247 24.514 L 33.247 12.882 C 33.247 10.816 32.159 9.081 30.311 7.994 L 30.311 7.99 Z" style="stroke-width: 1; fill: rgb(255, 255, 255);"/>
    <path class="cls-1" d="M 10.294 17.129 C 10.594 17.529 10.594 17.929 10.494 18.329 C 10.994 18.329 11.494 18.829 11.494 19.329 C 11.994 19.229 12.494 19.529 12.694 19.929 C 13.094 19.629 13.694 19.729 13.994 20.129 C 14.127 20.309 14.127 20.309 13.994 20.129 L 14.094 20.129 C 14.294 19.829 14.694 19.729 14.994 19.929 C 14.994 19.829 15.094 19.729 15.194 19.629 C 15.394 19.429 15.794 19.429 15.994 19.629 C 15.994 19.429 16.194 19.329 16.294 19.329 C 16.194 19.129 16.094 18.929 16.094 18.729 C 15.894 18.729 15.694 18.729 15.594 18.529 C 15.547 18.443 15.547 18.443 15.594 18.529 C 15.394 18.629 15.194 18.629 14.994 18.529 C 14.794 18.429 14.694 18.229 14.594 18.029 L 14.094 18.029 C 13.694 17.929 13.494 17.529 13.594 17.129 C 13.294 17.129 12.994 16.929 12.794 16.729 C 12.594 16.429 12.594 16.129 12.794 15.829 C 12.394 15.829 12.194 15.429 12.094 15.029 C 12.094 14.629 12.094 14.229 12.394 14.029 C 11.994 13.629 11.894 13.029 12.294 12.529 C 12.294 12.729 12.094 12.929 11.894 13.029 C 11.694 13.129 11.494 13.129 11.294 13.029 C 11.294 13.529 10.894 13.829 10.394 13.929 C 10.494 14.129 10.594 14.529 10.394 14.729 C 10.294 15.029 10.094 15.229 9.794 15.329 C 10.194 15.729 10.094 16.429 9.794 16.829 C 9.994 16.829 10.194 16.929 10.394 17.229 L 10.294 17.129 Z"/>
    <path class="cls-1" d="M 16.094 23.429 C 16.094 22.929 16.394 22.429 16.894 22.429 C 16.894 21.929 16.994 21.629 17.294 21.529 C 17.294 21.529 17.094 21.329 17.094 21.229 C 17.094 20.929 17.094 20.629 17.494 20.529 C 17.494 20.529 17.494 20.429 17.394 20.329 L 17.394 20.129 C 17.194 20.129 16.994 20.129 16.794 19.929 C 16.794 19.929 16.794 20.129 16.594 20.229 C 16.594 20.229 16.394 20.329 16.194 20.229 C 16.194 20.429 16.094 20.729 15.894 20.829 C 15.694 20.929 15.394 20.929 15.194 20.829 C 15.194 21.129 14.894 21.329 14.694 21.429 C 14.394 21.429 14.094 21.429 13.994 21.229 C 13.994 21.229 13.894 21.429 13.794 21.429 C 13.594 21.629 13.294 21.729 12.994 21.629 C 12.694 21.629 12.494 21.429 12.394 21.129 C 12.094 21.329 11.694 21.429 11.394 21.329 C 11.094 21.229 10.794 20.929 10.794 20.529 C 10.294 20.729 9.694 20.529 9.494 20.029 L 9.394 20.029 C 9.494 20.129 9.594 20.329 9.594 20.429 C 9.594 20.729 9.594 20.929 9.394 21.129 C 9.794 21.429 9.894 21.929 9.694 22.329 C 9.994 22.329 10.194 22.529 10.394 22.729 C 10.594 22.929 10.594 23.229 10.594 23.529 C 11.194 23.529 11.694 23.829 11.794 24.329 C 12.394 23.929 13.194 23.929 13.594 24.529 C 13.894 24.129 14.494 23.929 14.994 24.129 C 15.194 23.729 15.594 23.329 16.094 23.429 L 16.094 23.429 Z"/>
    <path class="cls-1" d="M 18.794 14.029 C 18.794 14.229 18.794 14.529 18.594 14.729 C 18.394 14.929 18.194 15.029 17.894 15.029 C 17.894 15.529 17.894 15.829 17.494 15.929 C 17.794 16.229 17.794 16.629 17.494 16.829 L 17.294 16.929 C 17.294 16.929 17.394 17.129 17.294 17.229 C 17.494 17.229 17.794 17.229 17.994 17.429 C 17.994 17.229 18.294 17.129 18.494 17.229 C 18.494 17.029 18.594 16.729 18.794 16.629 C 18.994 16.529 19.294 16.529 19.494 16.629 C 19.494 16.429 19.494 16.329 19.694 16.229 C 19.994 15.929 20.494 16.029 20.694 16.229 C 20.894 15.829 21.494 15.629 21.894 15.829 C 22.094 15.829 22.194 16.029 22.294 16.229 C 22.594 16.029 22.994 15.929 23.294 16.029 C 23.594 16.129 23.894 16.429 23.894 16.829 C 24.394 16.629 24.994 16.829 25.194 17.329 L 25.294 17.329 C 24.994 16.929 24.994 16.529 25.294 16.129 C 24.894 15.829 24.794 15.329 24.994 14.929 C 24.694 14.929 24.394 14.829 24.294 14.529 C 24.094 14.329 24.094 14.029 24.094 13.729 C 23.494 13.729 22.994 13.429 22.894 12.929 C 22.294 13.329 21.494 13.329 21.094 12.729 C 20.794 13.129 20.194 13.329 19.694 13.129 C 19.694 13.629 19.094 13.929 18.694 13.929 L 18.794 14.029 L 18.794 14.029 Z"/>
    <path class="cls-1" d="M 13.894 14.029 C 14.294 14.429 14.294 14.929 13.894 15.329 C 14.094 15.329 14.294 15.629 14.394 15.829 L 14.394 16.529 L 14.494 16.529 C 14.794 16.629 15.094 16.929 14.994 17.329 C 15.194 17.329 15.394 17.329 15.594 17.429 C 15.794 17.529 15.894 17.829 15.794 18.029 L 16.194 18.029 C 16.294 17.829 16.494 17.629 16.594 17.529 L 16.594 16.929 C 16.394 16.829 16.294 16.629 16.294 16.329 C 16.294 16.029 16.394 15.929 16.594 15.729 C 16.394 15.529 16.294 15.229 16.394 15.029 C 16.394 14.729 16.694 14.529 16.994 14.529 C 16.794 14.229 16.794 13.929 16.994 13.629 C 17.194 13.329 17.494 13.229 17.794 13.229 C 17.794 12.829 17.794 12.529 18.194 12.229 C 18.494 12.029 18.894 11.929 19.194 12.029 C 19.194 11.629 19.694 11.229 20.094 11.229 L 20.094 11.029 L 19.594 11.029 C 19.294 11.029 19.194 10.729 19.094 10.429 C 18.694 10.629 18.194 10.529 17.894 10.129 C 17.694 10.329 17.494 10.529 17.194 10.529 C 16.894 10.529 16.594 10.529 16.394 10.329 C 16.194 10.829 15.694 11.229 15.094 11.029 C 15.194 11.729 14.694 12.429 13.994 12.529 C 14.194 13.029 13.994 13.529 13.594 13.929 L 13.894 14.029 L 13.894 14.029 Z"/>
    <path class="cls-1" d="M 24.394 22.829 C 24.494 22.529 24.694 22.329 24.994 22.229 C 24.594 21.829 24.694 21.129 24.994 20.729 C 24.794 20.729 24.594 20.529 24.394 20.329 C 24.094 19.929 24.094 19.529 24.194 19.129 C 23.694 19.129 23.194 18.629 23.194 18.129 C 22.694 18.229 22.194 17.929 22.094 17.529 C 21.894 17.729 21.594 17.729 21.394 17.729 C 21.194 17.729 20.894 17.529 20.794 17.329 L 20.694 17.329 C 20.494 17.629 20.094 17.729 19.794 17.529 C 19.794 17.629 19.694 17.729 19.594 17.829 C 19.394 18.029 18.994 18.029 18.794 17.829 C 18.794 17.929 18.694 18.029 18.594 18.129 C 18.594 18.329 18.794 18.529 18.794 18.729 L 18.994 18.729 C 19.194 18.729 19.194 18.929 19.294 19.029 C 19.494 18.929 19.694 18.929 19.994 19.029 C 20.194 19.129 20.394 19.329 20.394 19.629 L 20.894 19.629 C 21.294 19.729 21.494 20.129 21.394 20.529 C 21.794 20.529 22.094 20.629 22.294 20.929 C 22.494 21.229 22.494 21.629 22.294 21.929 C 22.594 22.029 22.894 22.329 22.894 22.729 C 22.894 23.129 22.894 23.429 22.594 23.729 C 22.994 24.129 23.094 24.729 22.694 25.229 L 22.794 25.229 C 22.794 25.029 22.994 24.929 23.194 24.829 C 23.394 24.729 23.594 24.729 23.794 24.829 C 23.794 24.329 24.194 23.929 24.694 23.929 C 24.494 23.629 24.494 23.329 24.694 23.029 L 24.394 22.829 L 24.394 22.829 Z"/>
    <path class="cls-1" d="M 20.994 23.429 C 20.594 23.029 20.594 22.529 20.994 22.129 C 20.794 22.129 20.594 21.829 20.494 21.629 C 20.394 21.429 20.494 21.129 20.494 20.929 L 20.394 20.929 C 20.094 20.829 19.894 20.529 19.894 20.129 C 19.694 20.129 19.494 20.129 19.294 20.029 C 19.094 19.929 18.994 19.729 18.994 19.429 C 18.894 19.429 18.694 19.429 18.594 19.329 C 18.494 19.529 18.294 19.729 18.094 19.829 C 18.294 20.029 18.294 20.229 18.094 20.429 C 18.007 20.516 18.007 20.516 18.094 20.429 C 18.394 20.629 18.494 21.029 18.294 21.329 C 18.294 21.329 18.194 21.529 18.094 21.529 C 18.294 21.729 18.394 22.029 18.294 22.229 C 18.294 22.529 17.994 22.729 17.794 22.729 L 17.794 23.029 C 17.794 23.329 17.794 23.629 17.594 23.829 C 17.394 24.029 17.094 24.129 16.894 24.129 C 16.894 24.729 16.594 25.229 16.094 25.329 L 15.594 25.329 C 15.594 25.729 15.094 26.129 14.694 26.129 L 14.694 26.329 L 15.294 26.329 C 15.494 26.429 15.594 26.629 15.694 26.829 C 16.094 26.629 16.594 26.729 16.894 27.129 C 17.094 26.929 17.294 26.729 17.594 26.729 C 17.894 26.729 18.194 26.729 18.394 26.929 C 18.594 26.329 19.194 26.129 19.694 26.229 C 19.594 25.529 20.094 24.829 20.794 24.729 C 20.594 24.229 20.794 23.729 21.194 23.329 L 20.994 23.429 L 20.994 23.429 Z"/>
    <path class="cls-1" d="M 15.894 28.529 C 15.494 28.529 15.294 28.129 15.194 27.829 C 14.894 27.929 14.594 27.829 14.394 27.829 C 14.194 27.629 14.094 27.429 14.094 27.129 L 13.794 27.129 C 13.494 27.029 13.294 26.729 13.394 26.329 C 13.194 26.529 12.994 26.629 12.694 26.629 C 11.994 26.629 11.294 26.229 11.294 25.529 C 10.894 25.729 10.494 25.729 10.094 25.529 C 9.694 25.229 9.594 24.829 9.694 24.429 C 9.194 24.429 8.694 24.129 8.594 23.529 C 8.594 23.329 8.594 23.029 8.794 22.929 C 8.294 22.929 7.994 22.429 7.994 21.929 C 7.994 21.729 8.194 21.529 8.294 21.329 C 8.094 21.129 7.994 20.929 7.994 20.629 C 7.994 20.329 8.194 20.129 8.494 20.029 C 8.294 19.829 8.294 19.429 8.494 19.229 C 8.294 19.229 8.194 19.029 8.094 18.829 C 7.694 18.229 7.794 17.429 8.294 17.029 C 7.894 16.829 7.694 16.429 7.794 15.929 C 7.794 15.529 8.194 15.129 8.594 15.029 C 8.394 14.729 8.394 14.329 8.594 14.029 C 8.794 13.729 9.194 13.529 9.494 13.529 C 9.394 13.229 9.494 12.829 9.694 12.529 C 9.894 12.329 10.294 12.229 10.694 12.329 C 10.694 12.029 10.894 11.829 11.194 11.729 C 11.494 11.629 11.794 11.729 11.994 11.829 C 12.094 11.529 12.394 11.429 12.594 11.429 C 12.594 11.029 12.794 10.629 13.194 10.429 C 13.594 10.229 13.994 10.129 14.394 10.329 L 14.394 9.929 C 14.594 9.529 14.894 9.329 15.194 9.229 C 15.594 9.229 15.894 9.229 16.194 9.529 C 16.294 9.129 16.694 8.929 17.094 8.929 C 17.494 8.929 17.794 9.129 17.994 9.429 C 18.194 9.129 18.594 9.029 18.894 9.129 C 19.294 9.129 19.494 9.529 19.594 9.829 C 19.894 9.729 20.194 9.829 20.394 9.929 C 20.594 10.129 20.694 10.429 20.694 10.629 C 20.994 10.629 21.394 10.829 21.394 11.129 L 21.394 11.329 C 21.594 11.129 21.794 11.029 22.094 11.029 C 22.794 11.029 23.394 11.529 23.494 12.229 C 23.894 12.029 24.394 12.029 24.694 12.229 C 25.094 12.529 25.194 12.929 25.094 13.429 C 25.594 13.429 26.094 13.729 26.194 14.329 C 26.194 14.529 26.194 14.829 25.994 14.929 C 26.394 14.929 26.594 15.229 26.694 15.629 C 26.694 16.029 26.694 16.329 26.394 16.529 C 26.594 16.629 26.694 16.829 26.694 17.029 C 26.694 17.429 26.494 17.729 26.194 17.929 C 26.394 18.129 26.394 18.529 26.194 18.729 C 26.594 18.929 26.794 19.329 26.794 19.729 C 26.794 20.129 26.594 20.529 26.294 20.829 C 26.394 20.829 26.494 20.929 26.594 21.029 C 26.794 21.329 26.894 21.729 26.794 22.029 C 26.694 22.429 26.394 22.629 26.094 22.729 C 26.394 23.129 26.294 23.729 25.894 24.029 C 25.694 24.229 25.494 24.329 25.194 24.229 C 25.294 24.529 25.194 24.929 24.994 25.229 C 24.794 25.429 24.394 25.529 23.994 25.429 C 23.994 25.729 23.794 25.929 23.594 26.029 C 23.294 26.129 22.994 26.029 22.794 25.929 C 22.694 26.129 22.394 26.329 22.194 26.329 C 22.194 26.529 22.194 26.629 22.094 26.729 C 21.794 27.329 21.094 27.729 20.394 27.429 C 20.394 28.029 19.994 28.529 19.294 28.529 C 18.994 28.529 18.694 28.529 18.494 28.229 C 18.294 28.629 17.994 28.829 17.694 28.829 M 29.294 8.829 L 20.094 3.529 C 18.494 2.529 16.394 2.529 14.794 3.529 L 5.594 8.829 C 3.994 9.829 2.894 11.529 2.894 13.429 L 2.894 24.029 C 2.894 25.929 3.894 27.729 5.594 28.629 L 14.794 33.929 C 16.394 34.929 18.494 34.929 20.094 33.929 L 29.294 28.629 C 30.894 27.629 31.994 25.929 31.994 24.029 L 31.994 13.329 C 31.994 11.429 30.994 9.828 29.294 8.828 L 29.294 8.829 Z"/>
  </g>
  <path class="cls-2" d="M44.95,28.68c-5.3,0-7.2-3.2-7.2-9s1.9-9.2,7.2-9.2,2.7.2,3.4.4q.1,0,.1.2v2c-.1,0-.2.2-.4.1-.6-.2-1.8-.4-2.9-.4-3.3,0-4.1,1.8-4.1,6.9s1,6.5,4.1,6.5,2.1-.2,2.8-.3h.3l.2,1.9q0,.2-.1.3c-.9.2-2.2.4-3.5.4M56.05,25.38c.5.6,1.2.8,3,.8s2.5-.2,3-.8c.8-.9,1.3-3.3,1.3-6s-.4-4.9-1.3-5.7c-.5-.6-1.2-.8-3-.8s-2.5.2-3.1.8c-.8.9-1.2,3-1.2,5.7s.4,5.1,1.2,6M64.55,26.88c-1.2,1.2-2.9,1.8-5.5,1.8s-4.3-.5-5.4-1.8c-1.5-2.2-2.3-4.8-2.1-7.5,0-3.3.9-5.9,2.1-7.3,1.2-1.3,2.9-1.7,5.5-1.7s4.3.4,5.5,1.7c1.5,2.1,2.2,4.7,2.1,7.3,0,3.3-.9,6.1-2.1,7.5h-.1ZM81.95,13.48c0-.2,0-.3-.3-.4-.5-.2-1.6-.3-2.5-.3-3.7,0-4.9,1-4.9,6.5s.6,6.9,5.1,6.9,1.8,0,2.4-.2c.3-.1.3-.2.3-.4v-12.1h-.1ZM70.85,19.28c0-6.2,2.4-8.9,8.2-8.9s2.2.2,2.7.2.2-.1.2-.3v-5.8c0-.2.1-.3.4-.3h2.5c.2,0,.4.1.4.3v23c0,.2-.1.3-.4.4-1.8.5-3.7.7-5.6.7-6.7,0-8.4-2.6-8.4-9.3ZM93.55,18.28h7.5c.3,0,.4,0,.4-1.2,0-2.9-.9-4.3-3.8-4.3s-4.3,2.2-4.3,5.2,0,.2.2.2v.1ZM98.25,28.58c-6.7,0-8.3-4.1-8.3-9.1s1.9-9.1,7.6-9.1,6.8,3.3,6.8,7.6v.9c0,1.3-.3,1.6-.9,1.6h-10q-.2,0-.2.2c0,4.3,2.1,5.4,5.6,5.4s3.3-.4,4.4-.9h.2c.2,0,.3,0,.3.2v1.8h.1c0,.1,0,.3-.2.4-1.7.6-3.6,1-5.4.9M128.95,28.28h-4.4q-.2,0-.3-.2l-3.3-14.3c0-.2-.1-.2-.4-.2s-.4,0-.4.2c-.9,4.3-2.8,11.5-3.6,14.3,0,.2-.2.3-.4.3h-4.3c-.1,0-.2-.2-.3-.3-1.6-5.6-3.1-11.3-4.5-16.9,0-.2,0-.3.2-.3h3c.2,0,.2.1.2.3,1,4.8,2.1,9.6,3.3,14.4,0,.2.2.2.4.2s.4,0,.4-.2l3.3-14.4c0-.2.1-.3.3-.3h4.7c.2,0,.3.1.3.3.8,4.1,2.5,11.2,3.2,14.4,0,.2.2.2.4.2s.3,0,.4-.2c.9-3.2,2.7-10.2,3.5-14.4,0-.2.2-.3.3-.3h2.8c.1,0,.2.1.2.3-.4,2.1-3.6,13.5-4.8,17,0,.2-.2.3-.4.3M146.75,20.48q0-.2-.2-.2h-3.1c-2.8,0-3.6.6-3.6,3.2s.6,2.9,3.9,2.9c.9,0,1.7,0,2.6-.2.3,0,.3-.1.3-.2v-5.5h.1ZM138.85,13.18c-.2,0-.5,0-.5-.1l-.2-1.6c0-.2,0-.4.2-.4,1.7-.4,3.5-.6,5.2-.6,4.2,0,6.3,1.5,6.3,5.3v11.8c0,.2,0,.4-.4.5-1.7.4-3.5.6-5.3.6-5.8,0-7.5-1.2-7.5-4.7s.8-4.9,5.7-5.4l4.3-.5c.1,0,.2,0,.2-.2v-1.6c0-2.5-1.1-3.2-4-3.2s-2.9.2-3.9.3l-.1-.2ZM155.75,11.18c2.7-.7,5.6-.8,8.4-.6.2,0,.2.1.2.3l-.2,2.1c0,.1,0,.2-.2.2-.9-.2-1.8-.2-2.9-.2s-1.8,0-2.3.3c-.2,0-.2.2-.2.4v14.4c0,.2-.2.4-.4.3h-2.5c-.2,0-.3-.1-.3-.3V11.38c0-.2.1-.3.4-.3v.1ZM165.95,28.28c-.1,0-.2,0-.2-.2l.2-2.1s.1-.2.3-.1c1.2.2,2.4.4,3.7.4,2.9,0,3.4-.3,3.4-2.4s-.7-1.9-3.5-3.8c-2.8-2-3.8-2.8-3.8-4.9,0-3.4,1.5-4.7,6-4.7s2.9,0,3.9.3c0,0,.2,0,.2.2v2.1c-.1.1-.3.2-.4.2-.9-.2-2.1-.3-3.3-.3-2.5,0-3.3.2-3.3,2s.7,1.9,3.5,3.7c2.9,1.9,3.9,3.1,3.9,5.1,0,3.9-1.8,5-5.9,5-1.5,0-3,0-4.4-.3"/>
</svg>