<?xml version="1.0" encoding="utf-8"?>
<svg xmlns="http://www.w3.org/2000/svg" viewBox="-4.311 -4.174 136.157 133.477">
  <path d="M 129.18 50.44 L 128.99 49.956 L 110.657 2.11 C 110.284 1.172 109.534 0.017 108.679 -0.522 C 106.932 -1.607 100.83 -1.581 98.984 -0.628 C 97.704 0.033 96.345 1.744 96.07 2.715 L 84.232 38.48 L 44.165 38.589 C 44.165 38.589 33.04 4.72 32.569 3.777 C 32.301 2.802 31.664 0.975 29.79 -0.623 C 27.691 -2.413 22.694 -1.7 20.827 -1.078 C 19.822 -0.743 18.035 1.032 17.659 1.969 L -0.844 49.928 L -1.026 50.412 C -6.447 64.578 -1.843 80.624 10.266 89.758 L 10.329 89.807 L 10.497 89.926 L 38.425 110.84 L 52.241 121.297 L 60.658 127.652 C 62.682 129.187 65.48 129.187 67.503 127.652 L 75.92 121.297 L 89.736 110.84 L 117.832 89.8 L 117.902 89.744 C 129.982 80.607 134.578 64.591 129.18 50.44 Z" style="stroke-width: 1; fill: rgb(255, 255, 255);"/>
  <path fill="#E24329" d="m124.755 51.382-.177-.452L107.47 6.282a4.459 4.459 0 0 0-1.761-2.121 4.581 4.581 0 0 0-5.236.281 4.578 4.578 0 0 0-1.518 2.304L87.404 42.088H40.629L29.077 6.746a4.492 4.492 0 0 0-1.518-2.31 4.581 4.581 0 0 0-5.236-.281 4.502 4.502 0 0 0-1.761 2.121L3.422 50.904l-.17.452c-5.059 13.219-.763 28.192 10.537 36.716l.059.046.157.111 26.061 19.516 12.893 9.758 7.854 5.93a5.283 5.283 0 0 0 6.388 0l7.854-5.93 12.893-9.758 26.218-19.634.065-.052c11.273-8.526 15.562-23.472 10.524-36.677z"/>
  <path fill="#FC6D26" d="m124.755 51.382-.177-.452a57.79 57.79 0 0 0-23.005 10.341L64 89.682c12.795 9.68 23.934 18.09 23.934 18.09l26.218-19.634.065-.052c11.291-8.527 15.586-23.488 10.538-36.704z"/>
  <path fill="#FCA326" d="m40.066 107.771 12.893 9.758 7.854 5.93a5.283 5.283 0 0 0 6.388 0l7.854-5.93 12.893-9.758s-11.152-8.436-23.947-18.09a18379.202 18379.202 0 0 0-23.935 18.09z"/>
  <path fill="#FC6D26" d="M26.42 61.271A57.73 57.73 0 0 0 3.422 50.904l-.17.452c-5.059 13.219-.763 28.192 10.537 36.716l.059.046.157.111 26.061 19.516L64 89.655 26.42 61.271z"/>
</svg>